<svg preserveAspectRatio="none" width="100%" height="100%" overflow="visible" style="display: block;" viewBox="0 0 5.83333 11.6667" fill="none" xmlns="http://www.w3.org/2000/svg">
<g id="Container">
<path id="Icon" d="M0 0H5.83333V4.57917C5.83333 4.80278 5.78472 5.00208 5.6875 5.17708C5.59028 5.35208 5.45417 5.49306 5.27917 5.6L3.20833 6.825L3.61667 8.16667H5.83333L4.025 9.45L4.725 11.6667L2.91667 10.2958L1.10833 11.6667L1.80833 9.45L0 8.16667H2.21667L2.625 6.825L0.554167 5.6C0.379167 5.49306 0.243056 5.35208 0.145833 5.17708C0.0486111 5.00208 0 4.80278 0 4.57917V0V0M1.16667 1.16667V4.57917V4.57917V4.57917L2.33333 5.27917V1.16667H1.16667V1.16667M4.66667 1.16667H3.5V5.27917L4.66667 4.57917V4.57917V4.57917V1.16667V1.16667M2.91667 3.39792V3.39792V3.39792V3.39792V3.39792V3.39792V3.39792M2.33333 3.22292V3.22292V3.22292V3.22292V3.22292V3.22292V3.22292V3.22292M3.5 3.22292V3.22292V3.22292V3.22292V3.22292V3.22292V3.22292V3.22292" fill="var(--fill-0, #04BCB4)"/>
</g>
</svg>

