<svg preserveAspectRatio="none" width="100%" height="100%" overflow="visible" style="display: block;" viewBox="0 0 48 48" fill="none" xmlns="http://www.w3.org/2000/svg">
<g id="Overlay">
<rect width="48" height="48" rx="8" fill="var(--fill-0, #04BCB4)" fill-opacity="0.1"/>
<path id="Vector" fill-rule="evenodd" clip-rule="evenodd" d="M12.1875 17.6719C12.1875 16.5064 13.1325 15.5625 14.2969 15.5625H33.7031C34.8675 15.5625 35.8125 16.5075 35.8125 17.6719V21.0761C35.8126 21.2243 35.7737 21.3699 35.6996 21.4983C35.6255 21.6267 35.519 21.7333 35.3906 21.8074C35.0053 22.0292 34.6853 22.3487 34.4627 22.7337C34.2402 23.1186 34.123 23.5554 34.123 24C34.123 24.4446 34.2402 24.8814 34.4627 25.2663C34.6853 25.6513 35.0053 25.9708 35.3906 26.1926C35.519 26.2667 35.6255 26.3733 35.6996 26.5017C35.7737 26.6301 35.8126 26.7757 35.8125 26.9239V30.3281C35.8125 31.4925 34.8675 32.4375 33.7031 32.4375H14.2969C13.7374 32.4375 13.2009 32.2153 12.8053 31.8197C12.4097 31.4241 12.1875 30.8876 12.1875 30.3281V26.9239C12.1873 26.7758 12.2261 26.6302 12.2999 26.5019C12.3738 26.3735 12.4801 26.2669 12.6083 26.1926C12.9936 25.9708 13.3136 25.6513 13.5362 25.2663C13.7587 24.8814 13.8759 24.4446 13.8759 24C13.8759 23.5554 13.7587 23.1186 13.5362 22.7337C13.3136 22.3487 12.9936 22.0292 12.6083 21.8074C12.4801 21.7331 12.3738 21.6265 12.2999 21.4981C12.2261 21.3698 12.1873 21.2242 12.1875 21.0761V17.6719ZM29.0625 16.4062C29.2863 16.4062 29.5009 16.4951 29.6591 16.6534C29.8174 16.8116 29.9063 17.0262 29.9063 17.25V18.0938C29.9063 18.3175 29.8174 18.5321 29.6591 18.6904C29.5009 18.8486 29.2863 18.9375 29.0625 18.9375C28.8387 18.9375 28.6241 18.8486 28.4659 18.6904C28.3076 18.5321 28.2188 18.3175 28.2188 18.0938V17.25C28.2188 17.0262 28.3076 16.8116 28.4659 16.6534C28.6241 16.4951 28.8387 16.4062 29.0625 16.4062ZM29.9063 21.4688C29.9063 21.245 29.8174 21.0304 29.6591 20.8721C29.5009 20.7139 29.2863 20.625 29.0625 20.625C28.8387 20.625 28.6241 20.7139 28.4659 20.8721C28.3076 21.0304 28.2188 21.245 28.2188 21.4688V22.3125C28.2188 22.5363 28.3076 22.7509 28.4659 22.9091C28.6241 23.0674 28.8387 23.1562 29.0625 23.1562C29.2863 23.1562 29.5009 23.0674 29.6591 22.9091C29.8174 22.7509 29.9063 22.5363 29.9063 22.3125V21.4688ZM29.0625 24.8438C29.2863 24.8438 29.5009 24.9326 29.6591 25.0909C29.8174 25.2491 29.9063 25.4637 29.9063 25.6875V26.5312C29.9063 26.755 29.8174 26.9696 29.6591 27.1279C29.5009 27.2861 29.2863 27.375 29.0625 27.375C28.8387 27.375 28.6241 27.2861 28.4659 27.1279C28.3076 26.9696 28.2188 26.755 28.2188 26.5312V25.6875C28.2188 25.4637 28.3076 25.2491 28.4659 25.0909C28.6241 24.9326 28.8387 24.8438 29.0625 24.8438ZM29.9063 29.9062C29.9063 29.6825 29.8174 29.4679 29.6591 29.3096C29.5009 29.1514 29.2863 29.0625 29.0625 29.0625C28.8387 29.0625 28.6241 29.1514 28.4659 29.3096C28.3076 29.4679 28.2188 29.6825 28.2188 29.9062V30.75C28.2188 30.9738 28.3076 31.1884 28.4659 31.3466C28.6241 31.5049 28.8387 31.5938 29.0625 31.5938C29.2863 31.5938 29.5009 31.5049 29.6591 31.3466C29.8174 31.1884 29.9063 30.9738 29.9063 30.75V29.9062ZM17.25 24C17.25 23.7762 17.3389 23.5616 17.4971 23.4034C17.6554 23.2451 17.87 23.1562 18.0938 23.1562H24C24.2238 23.1562 24.4384 23.2451 24.5966 23.4034C24.7549 23.5616 24.8438 23.7762 24.8438 24C24.8438 24.2238 24.7549 24.4384 24.5966 24.5966C24.4384 24.7549 24.2238 24.8438 24 24.8438H18.0938C17.87 24.8438 17.6554 24.7549 17.4971 24.5966C17.3389 24.4384 17.25 24.2238 17.25 24ZM18.0938 26.5312C17.87 26.5312 17.6554 26.6201 17.4971 26.7784C17.3389 26.9366 17.25 27.1512 17.25 27.375C17.25 27.5988 17.3389 27.8134 17.4971 27.9716C17.6554 28.1299 17.87 28.2188 18.0938 28.2188H21.4688C21.6925 28.2188 21.9071 28.1299 22.0654 27.9716C22.2236 27.8134 22.3125 27.5988 22.3125 27.375C22.3125 27.1512 22.2236 26.9366 22.0654 26.7784C21.9071 26.6201 21.6925 26.5312 21.4688 26.5312H18.0938Z" fill="var(--fill-0, black)"/>
</g>
</svg>

