<svg preserveAspectRatio="none" width="100%" height="100%" overflow="visible" style="display: block;" viewBox="0 0 17 17" fill="none" xmlns="http://www.w3.org/2000/svg">
<g id="Frame">
<path id="Vector" d="M10.625 7.4375C10.625 8.00108 10.4011 8.54159 10.0026 8.9401C9.60409 9.33862 9.06358 9.5625 8.5 9.5625C7.93641 9.5625 7.39591 9.33862 6.9974 8.9401C6.59888 8.54159 6.375 8.00108 6.375 7.4375C6.375 6.87391 6.59888 6.33341 6.9974 5.9349C7.39591 5.53638 7.93641 5.3125 8.5 5.3125C9.06358 5.3125 9.60409 5.53638 10.0026 5.9349C10.4011 6.33341 10.625 6.87391 10.625 7.4375Z" stroke="var(--stroke-0, #6C6868)" stroke-width="1.5" stroke-linecap="round" stroke-linejoin="round"/>
<path id="Vector_2" d="M13.8125 7.4375C13.8125 12.4964 8.5 15.4062 8.5 15.4062C8.5 15.4062 3.1875 12.4964 3.1875 7.4375C3.1875 6.02854 3.74721 4.67728 4.7435 3.681C5.73978 2.68471 7.09104 2.125 8.5 2.125C9.90896 2.125 11.2602 2.68471 12.2565 3.681C13.2528 4.67728 13.8125 6.02854 13.8125 7.4375Z" stroke="var(--stroke-0, #6C6868)" stroke-width="1.5" stroke-linecap="round" stroke-linejoin="round"/>
</g>
</svg>

