<svg preserveAspectRatio="none" width="100%" height="100%" overflow="visible" style="display: block;" viewBox="0 0 54 54" fill="none" xmlns="http://www.w3.org/2000/svg">
<g id="Frame">
<path id="Vector" d="M29.5 9.5V24.5H40.75M52 24.5C52 27.4547 51.418 30.3806 50.2873 33.1104C49.1566 35.8402 47.4992 38.3206 45.4099 40.4099C43.3206 42.4992 40.8402 44.1566 38.1104 45.2873C35.3806 46.418 32.4547 47 29.5 47C26.5453 47 23.6194 46.418 20.8896 45.2873C18.1598 44.1566 15.6794 42.4992 13.5901 40.4099C11.5008 38.3206 9.84344 35.8402 8.71271 33.1104C7.58198 30.3806 7 27.4547 7 24.5C7 18.5326 9.37053 12.8097 13.5901 8.5901C17.8097 4.37053 23.5326 2 29.5 2C35.4674 2 41.1903 4.37053 45.4099 8.5901C49.6295 12.8097 52 18.5326 52 24.5Z" stroke="var(--stroke-0, white)" stroke-width="3" stroke-linecap="round" stroke-linejoin="round"/>
</g>
</svg>

