<svg width="120" height="40" viewBox="0 0 120 40" fill="none" xmlns="http://www.w3.org/2000/svg">
  <rect width="120" height="40" rx="8" fill="white"/>
  <path d="M20.4 20.2V17.2H30.6C30.7 17.8 30.7 18.5 30.7 19.2C30.7 21.4 30.1 24.2 28.1 26.1C26.1 28.1 23.6 29.1 20.4 29.1C14.7 29.1 10 24.4 10 18.7C10 13 14.7 8.3 20.4 8.3C23.5 8.3 26.1 9.5 28 11.3L25.9 13.4C24.6 12.2 22.9 11.3 20.4 11.3C16.5 11.3 13.5 14.5 13.5 18.7C13.5 22.9 16.5 26.1 20.4 26.1C22.9 26.1 24.3 25.1 25.2 24.2C26 23.4 26.5 22.2 26.7 20.2H20.4Z" fill="#4285F4"/>
  <path d="M39.6 15.3C43.3 15.3 46.4 18.1 46.4 22.2C46.4 26.2 43.3 29.1 39.6 29.1C35.8 29.1 32.7 26.2 32.7 22.2C32.7 18.1 35.8 15.3 39.6 15.3ZM39.6 26.4C41.7 26.4 43.4 24.7 43.4 22.2C43.4 19.6 41.7 18 39.6 18C37.4 18 35.7 19.6 35.7 22.2C35.7 24.7 37.4 26.4 39.6 26.4Z" fill="#EA4335"/>
  <path d="M54.2 34.8H51.2V15.7H54.1V17.3H54.2C54.9 16.4 56.2 15.3 58.1 15.3C61.5 15.3 64.6 18.3 64.6 22.2C64.6 26 61.5 29.1 58.1 29.1C56.2 29.1 54.9 28 54.2 27.1H54.1L54.2 28.8V34.8ZM57.9 26.4C60 26.4 61.7 24.6 61.7 22.2C61.7 19.7 60 18 57.9 18C55.9 18 54.1 19.8 54.1 22.2C54.1 24.6 55.9 26.4 57.9 26.4Z" fill="#FBBC04"/>
  <path d="M69.1 11.1C69.1 12.1 68.3 12.9 67.2 12.9C66.1 12.9 65.3 12.1 65.3 11.1C65.3 10 66.1 9.2 67.2 9.2C68.3 9.2 69.1 10 69.1 11.1ZM68.7 28.7H65.7V15.7H68.7V28.7Z" fill="#34A853"/>
  <path d="M71.4 8.8H74.4V28.7H71.4V8.8Z" fill="#5F6368"/>
  <path d="M81.7 28.7H78.7V8.8H85.5C88.9 8.8 91 11.2 91 14C91 16.8 88.9 19.2 85.5 19.2H81.7V28.7ZM81.7 16.3H85.6C87.5 16.3 88.1 14.7 88.1 14C88.1 13.3 87.5 11.7 85.6 11.7H81.7V16.3Z" fill="#202124"/>
  <path d="M97.7 15.3C100 15.3 102.3 16.3 103.3 18.2L100.6 19.3C100 18.2 99 17.8 97.6 17.8C95.9 17.8 94.3 18.8 94.2 20.5L91.5 19.9C91.8 17 94.3 15.3 97.7 15.3ZM94.4 24.9C94.4 26.2 95.8 26.7 97 26.7C98.9 26.7 99.8 25.6 100.2 24.6C99.4 24 98.3 23.8 97.1 23.8C95.5 23.8 94.4 24.3 94.4 24.9ZM102.8 15.7V28.7H100V27.1H99.9C99.1 28.2 97.7 29.1 95.9 29.1C93.1 29.1 90.6 27.5 90.6 24.9C90.6 22.1 93 20.8 95.8 20.8C98 20.8 99.2 21.3 100 21.8V21.3C100 19.9 98.9 17.9 96.8 17.9C95.1 17.9 94.1 18.6 93.5 19.4L90.8 17.7C92.3 16 94.5 15.3 96.8 15.3C100.4 15.3 102.8 17.4 102.8 21.2V15.7Z" fill="#202124"/>
</svg>
